<?xml version="1.0" encoding="UTF-8" standalone="no"?>
<svg
   xmlns:osb="http://www.openswatchbook.org/uri/2009/osb"
   xmlns:dc="http://purl.org/dc/elements/1.1/"
   xmlns:cc="http://creativecommons.org/ns#"
   xmlns:rdf="http://www.w3.org/1999/02/22-rdf-syntax-ns#"
   xmlns:svg="http://www.w3.org/2000/svg"
   xmlns="http://www.w3.org/2000/svg"
   xmlns:xlink="http://www.w3.org/1999/xlink"
   id="svg8"
   version="1.1"
   viewBox="0 0 69.202454 54.777428"
   height="54.777428mm"
   width="69.202454mm">
  <defs
     id="defs2">
    <linearGradient
       osb:paint="solid"
       id="linearGradient6015">
      <stop
         id="stop6013"
         offset="0"
         style="stop-color:#000000;stop-opacity:1;" />
    </linearGradient>
    <linearGradient
       gradientUnits="userSpaceOnUse"
       y2="136.45892"
       x2="126.30914"
       y1="136.45892"
       x1="49.8046"
       id="linearGradient6017"
       xlink:href="#linearGradient6015" />
  </defs>
  <metadata
     id="metadata5">
    <rdf:RDF>
      <cc:Work
         rdf:about="">
        <dc:format>image/svg+xml</dc:format>
        <dc:type
           rdf:resource="http://purl.org/dc/dcmitype/StillImage" />
        <dc:title></dc:title>
      </cc:Work>
    </rdf:RDF>
  </metadata>
  <g
     transform="translate(-64.791435,-99.704097)"
     id="layer1">
    <flowRoot
       transform="scale(0.26458333)"
       style="font-style:normal;font-weight:normal;font-size:40px;line-height:1.25;font-family:sans-serif;letter-spacing:0px;word-spacing:0px;fill:#000000;fill-opacity:1;stroke:none"
       id="flowRoot3725"
       xml:space="preserve"><flowRegion
         id="flowRegion3727"><rect
           y="504.30634"
           x="549.52301"
           height="48.487324"
           width="56.568542"
           id="rect3729" /></flowRegion><flowPara
         id="flowPara3731"></flowPara></flowRoot>    <flowRoot
       transform="scale(0.26458333)"
       style="font-style:normal;font-weight:normal;font-size:40px;line-height:1.25;font-family:sans-serif;letter-spacing:0px;word-spacing:0px;fill:#000000;fill-opacity:1;stroke:none"
       id="flowRoot3733"
       xml:space="preserve"><flowRegion
         id="flowRegion3735"><rect
           y="502.28601"
           x="547.50269"
           height="60.609154"
           width="60.609154"
           id="rect3737" /></flowRegion><flowPara
         id="flowPara3739"></flowPara></flowRoot>    <path
       id="path6592"
       transform="scale(0.26458333)"
       d="m 490.76562,377.83594 c -0.47186,-0.0138 -0.90934,0.0616 -1.3125,0.22656 -1.07507,0 -3.46964,3.61523 -7.18359,10.84766 -3.61621,7.13472 -5.42383,11.77756 -5.42383,13.92773 0,1.07509 0.73318,2.10078 2.19922,3.07813 1.66152,1.17282 4.20231,2.93169 7.62305,5.27734 3.51847,2.24791 5.56986,3.51921 6.15625,3.8125 1.56378,0 4.05778,-2.93275 7.47851,-8.79688 3.42074,-5.86412 5.13086,-10.3588 5.13086,-13.48632 -0.29317,-2.34565 -2.49275,-5.57089 -6.59765,-9.67578 -3.33524,-3.41462 -6.02551,-5.15138 -8.07032,-5.21094 z M 311.17773,419.4707 c -0.47187,-0.0137 -0.91129,0.0616 -1.31445,0.22657 -1.07509,0 -3.46769,3.61522 -7.18164,10.84765 -3.61621,7.13469 -5.42578,11.77756 -5.42578,13.92774 0,1.0751 0.73318,2.10271 2.19922,3.08007 1.6615,1.17282 4.2023,2.9317 7.62304,5.27735 3.51848,2.24794 5.57179,3.51735 6.15821,3.81054 1.56377,10e-6 4.05582,-2.93078 7.47656,-8.79492 3.42075,-5.86411 5.13086,-10.36074 5.13086,-13.48828 -0.29321,-2.34565 -2.49277,-5.57088 -6.59766,-9.67578 -3.33522,-3.41464 -6.02355,-5.15138 -8.06836,-5.21094 z m 184.76172,38.78321 c -0.31764,0 -0.72031,0.14625 -1.20898,0.43945 -7.81879,17.98333 -11.82608,27.56155 -12.02149,28.73437 -0.1954,0.78188 -0.29296,1.71007 -0.29296,2.78516 0,1.857 0.0976,3.32335 0.29296,4.39844 0.19529,2.05243 0.34157,3.66506 0.43946,4.83789 0.0977,1.17282 3.2e-4,2.49294 -0.29297,3.95898 -0.29318,1.46604 -0.93174,2.89472 -3.17969,5.04492 -1.11709,1.06852 -1.1033,0.79278 -3.23633,2.48829 -0.57147,-2.69518 -1.65708,-5.34669 -3.55273,-7.97266 -2.52873,-3.50294 -5.96158,-5.13281 -9.96875,-5.13281 -2.34565,0 -4.74022,1.56388 -7.18359,4.6914 -2.34566,3.12753 -4.69146,7.08596 -7.03711,11.875 -2.34565,4.78904 -3.90954,8.30873 -4.69141,10.55664 -0.68413,2.15022 -1.22037,4.05528 -1.61133,5.7168 -0.39092,2.73657 0.63474,5.22865 3.07813,7.47656 2.44339,2.24788 5.47363,3.42165 9.08984,3.51954 1.3683,0 2.73521,-0.34322 4.10352,-1.02735 1.46604,-0.7821 2.88365,-1.0743 4.25195,-0.87891 -1.27057,4.49583 -3.27316,8.55176 -6.00977,12.16797 -2.63883,3.51848 -5.2791,6.20555 -7.91797,8.0625 -2.54112,1.857 -8.25839,5.76665 -17.15234,11.72852 -8.89395,5.96186 -12.94984,9.4796 -12.16797,10.55469 0,0.39099 0.39196,0.58789 1.17383,0.58789 1.27056,0 5.27775,-1.07639 12.02148,-3.22657 6.84152,-2.2479 11.9231,-3.95803 15.2461,-5.13085 3.323,-1.27057 5.81504,-2.4425 7.47656,-3.51758 1.66152,-1.07509 3.95854,-3.8616 6.89063,-8.35742 2.93204,-4.49583 6.10856,-11.48253 9.52929,-20.96289 0.78187,-2.15018 1.46634,-4.44724 2.05274,-6.89063 0.29768,-1.10569 0.54196,-2.0774 0.76562,-2.99805 2.38502,-2.42152 4.68641,-4.84413 6.85742,-7.26562 2.63887,-2.93208 5.7666,-8.1112 9.38282,-15.53906 3.61617,-7.42791 5.52139,-15.29601 5.71679,-23.60352 l 0.29297,-23.16211 c 0,-1.75922 -0.14616,-2.9331 -0.43945,-3.51953 -0.14661,-0.2932 -0.37962,-0.43945 -0.69727,-0.43945 z m -149.13086,39.58203 c -2.34565,0 -4.7402,1.56387 -7.18359,4.6914 -2.34565,3.12754 -4.69146,7.08596 -7.03711,11.875 -2.34565,4.78904 -3.90952,8.30873 -4.69141,10.55664 -0.68415,2.1502 -1.22234,4.0553 -1.61328,5.7168 -0.39094,2.73658 0.63669,5.22865 3.08008,7.47656 2.44339,2.24789 5.47168,3.42177 9.08789,3.51954 1.3683,0 2.73717,-0.3432 4.10547,-1.02735 1.46603,-0.78193 2.88366,-1.07443 4.25195,-0.87891 -1.27056,4.49583 -3.27512,8.55175 -6.01171,12.16797 -2.63886,3.51849 -5.27716,6.20555 -7.91602,8.0625 -2.54113,1.85699 -8.25841,5.76667 -17.15234,11.72852 -8.89394,5.96188 -12.94986,9.47959 -12.16797,10.55469 0,0.39093 0.38999,0.58789 1.17187,0.58789 1.27056,0 5.27774,-1.07639 12.02149,-3.22657 6.84148,-2.24791 11.92503,-3.95802 15.24804,-5.13085 3.32301,-1.27056 5.81506,-2.44248 7.47657,-3.51758 1.6615,-1.0751 3.95856,-3.8616 6.89062,-8.35742 2.93207,-4.49583 6.10856,-11.48253 9.5293,-20.96289 0.78188,-2.15018 1.46436,-4.44724 2.05078,-6.89063 0.68415,-2.54113 1.17359,-4.59444 1.4668,-6.1582 0.39094,-1.66151 0.73218,-3.66412 1.02539,-6.00977 0.2932,-2.44339 0.4414,-4.88669 0.4414,-7.33008 0,-4.78904 -1.36887,-8.89373 -4.10547,-12.31445 -2.63885,-3.42075 -5.96159,-5.13281 -9.96875,-5.13281 z m -38.84961,6.01172 c -1.27056,-0.0977 -2.44444,0.97669 -3.51953,3.22461 -1.07509,2.24791 -2.8827,6.45006 -5.42383,12.60742 -2.44338,6.15733 -5.22793,12.26658 -8.35546,18.32617 -3.0298,6.05962 -5.76755,10.60497 -8.21094,13.63476 -2.44339,3.0298 -6.54806,6.59628 -12.31445,10.70118 -5.7664,4.00715 -10.848,7.37863 -15.2461,10.11523 -4.30036,2.63887 -6.98936,4.78969 -8.06445,6.45117 -0.78189,1.0751 -1.07438,1.95453 -0.87891,2.63868 0.19547,0.68411 0.78241,1.07606 1.75977,1.17382 0.97735,0 3.32316,-0.29445 7.03711,-0.88086 3.81168,-0.68414 8.79579,-1.90481 14.95312,-3.66406 6.25508,-1.85698 10.74974,-3.86154 13.48633,-6.01172 2.83433,-2.24791 5.42583,-5.47315 7.77148,-9.67578 2.34566,-4.20263 5.0327,-10.40742 8.0625,-18.61719 3.12754,-8.20979 5.61959,-15.78537 7.47657,-22.72461 1.9547,-6.93921 2.98038,-11.72832 3.07812,-14.36718 0,-1.75917 -0.53623,-2.73612 -1.61133,-2.93164 z m 111.85743,0 c -1.27055,-0.0977 -2.44248,0.97669 -3.51758,3.22461 -1.07508,2.24791 -2.88466,6.45006 -5.42578,12.60742 -2.44339,6.15733 -5.22794,12.26658 -8.35547,18.32617 -3.0298,6.05962 -5.7656,10.60497 -8.20899,13.63476 -2.44339,3.0298 -6.55,6.59628 -12.3164,10.70118 -5.7664,4.00715 -10.848,7.37863 -15.2461,10.11523 -4.30036,2.63887 -6.9874,4.78969 -8.0625,6.45117 -0.78189,1.0751 -1.07633,1.95453 -0.88086,2.63868 0.19548,0.68411 0.78241,1.07606 1.75977,1.17382 0.97735,0 3.32316,-0.29445 7.03711,-0.88086 3.81169,-0.68414 8.7958,-1.90481 14.95312,-3.66406 6.25507,-1.85698 10.75168,-3.86154 13.48829,-6.01172 2.83434,-2.24791 5.42388,-5.47315 7.76953,-9.67578 2.34565,-4.20263 5.0327,-10.40742 8.0625,-18.61719 3.12753,-8.20979 5.62153,-15.78537 7.47851,-22.72461 1.95467,-6.93921 2.98036,-11.72832 3.07813,-14.36718 0,-1.75917 -0.53818,-2.73612 -1.61328,-2.93164 z"
       style="font-style:normal;font-variant:normal;font-weight:normal;font-stretch:normal;font-size:79.43942261px;line-height:1.25;font-family:IranNastaliq;-inkscape-font-specification:IranNastaliq;letter-spacing:0px;word-spacing:0px;fill:none;fill-opacity:1;stroke:#000000;stroke-width:2.00000024;stroke-miterlimit:4;stroke-dasharray:none;stroke-opacity:1" />
  </g>
</svg>
